<?xml version="1.0" encoding="UTF-8"?><svg id="Ebene_1" xmlns="http://www.w3.org/2000/svg" viewBox="0 0 226.72 91.41"><defs><style>.cls-1{fill:#fff;}.cls-2{fill:#ffed00;}.cls-3{fill:#80c1d1;}</style></defs><polygon class="cls-2" points="33.02 78.94 33.02 83.28 20.64 89.37 20.64 81.85 33.02 78.94"/><polygon class="cls-2" points="54.42 2.04 54.42 9.56 42.05 12.47 42.05 8.12 54.42 2.04"/><polygon class="cls-3" points="33.02 12.47 33.02 14.59 25.12 16.44 3.35 21.55 3.35 5.5 33.02 12.47"/><polygon class="cls-3" points="71.71 69.86 71.71 85.9 42.05 78.94 42.05 76.82 49.93 74.97 71.71 69.86"/><polygon class="cls-1" points="14.94 30.88 14.94 39.91 33.02 39.91 33.02 78.94 20.64 81.85 3.35 85.9 3.35 21.55 25.12 16.44 33.02 14.59 33.02 30.88 14.94 30.88"/><polygon class="cls-1" points="71.71 5.5 71.71 69.86 49.93 74.97 42.05 76.82 42.05 39.91 60.13 39.91 60.13 30.88 42.05 30.88 42.05 12.47 54.42 9.56 71.71 5.5"/><path class="cls-1" d="M90.12,31.94v-12.42h2.48v10.19h3.24v2.23h-5.72Z"/><path class="cls-1" d="M103.68,31.94l-.4-1.94h-2.86l-.4,1.94h-2.58l3.19-12.42h2.44l3.19,12.42h-2.58ZM101.85,23.17l-.96,4.6h1.92l-.96-4.6Z"/><path class="cls-1" d="M113.25,31.94l-2.63-6.07v6.07h-2.48v-12.42h2.16l2.58,6.07v-6.07h2.48v12.42h-2.11Z"/><path class="cls-1" d="M124.11,30.74c-.56.65-1.33,1.2-2.72,1.2h-3.51v-12.42h3.51c1.4,0,2.16.56,2.72,1.2.87.99.92,2.7.92,4.99s-.05,4.03-.92,5.02ZM122.26,22.3c-.16-.31-.47-.54-.93-.54h-.98v7.95h.98c.45,0,.77-.23.93-.54.3-.58.3-2.08.3-3.45s0-2.84-.3-3.42Z"/><path class="cls-1" d="M127.27,31.94v-12.42h5.72v2.23h-3.24v2.81h2.79v2.23h-2.79v2.91h3.24v2.23h-5.72Z"/><path class="cls-1" d="M141.06,31.16c-.56.54-1.5.92-2.7.92s-2.13-.35-2.69-.91c-.61-.61-.82-1.48-.82-2.76h2.48c0,.51.04.87.26,1.13.14.16.38.3.77.3s.63-.1.79-.31c.17-.21.24-.54.24-1.05,0-1.19-.19-1.4-1.08-1.76l-1.57-.65c-1.26-.52-1.78-1.19-1.78-3.12,0-1.15.37-2.11,1.12-2.76.59-.51,1.34-.79,2.28-.79,1.1,0,1.9.28,2.44.79.68.63.96,1.62.96,2.88h-2.48c0-.44,0-.84-.21-1.12-.14-.19-.35-.31-.72-.31s-.58.14-.72.33c-.16.21-.21.47-.21.89,0,.78.14,1.01.85,1.31l1.55.63c1.57.65,2.02,1.34,2.02,3.59,0,1.26-.16,2.13-.8,2.76Z"/><path class="cls-1" d="M149.1,31.94l-1.78-4.54-.8,1.67v2.86h-2.48v-12.42h2.48v5.34l2.36-5.34h2.48l-2.48,5.16,2.88,7.26h-2.65Z"/><path class="cls-1" d="M153.62,31.94v-12.42h2.48v12.42h-2.48Z"/><path class="cls-1" d="M163.42,31.94l-1.52-4.83h-.82v4.83h-2.48v-12.42h3.54c2.7,0,3.45,1.41,3.45,3.78,0,1.33-.21,2.51-1.41,3.26l1.81,5.37h-2.58ZM162.13,21.76h-1.05v3.12h1.05c.94,0,.99-.86.99-1.57s-.05-1.55-.99-1.55Z"/><path class="cls-1" d="M173.67,31.19c-.63.59-1.36.89-2.39.89-1.34,0-2.16-.56-2.72-1.26-.87-1.06-.92-2.7-.92-5.09s.05-4.03.92-5.09c.56-.7,1.38-1.26,2.72-1.26,1.03,0,1.76.3,2.39.89.65.61,1.06,1.59,1.12,2.77h-2.48c-.02-.35-.05-.7-.19-.96-.14-.3-.38-.47-.84-.47s-.7.21-.84.49c-.3.58-.33,2.13-.33,3.63s.04,3.05.33,3.63c.14.28.38.49.84.49s.7-.19.84-.49c.14-.26.17-.61.19-.96h2.48c-.05,1.19-.47,2.18-1.12,2.79Z"/><path class="cls-1" d="M181.41,31.94v-5.2h-2.06v5.2h-2.48v-12.42h2.48v4.99h2.06v-4.99h2.48v12.42h-2.48Z"/><path class="cls-1" d="M186.41,31.94v-12.42h2.48v10.19h3.24v2.23h-5.72Z"/><path class="cls-1" d="M194.15,31.94v-12.42h2.48v12.42h-2.48Z"/><path class="cls-1" d="M204.91,31.19c-.63.59-1.36.89-2.39.89-1.34,0-2.16-.56-2.72-1.26-.87-1.06-.92-2.7-.92-5.09s.05-4.03.92-5.09c.56-.7,1.38-1.26,2.72-1.26,1.03,0,1.76.3,2.39.89.65.61,1.06,1.59,1.12,2.77h-2.48c-.02-.35-.05-.7-.19-.96-.14-.3-.38-.47-.84-.47s-.7.21-.84.49c-.3.58-.33,2.13-.33,3.63s.04,3.05.33,3.63c.14.28.38.49.84.49s.7-.19.84-.49c.14-.26.17-.61.19-.96h2.48c-.05,1.19-.47,2.18-1.12,2.79Z"/><path class="cls-1" d="M212.65,31.94v-5.2h-2.06v5.2h-2.48v-12.42h2.48v4.99h2.06v-4.99h2.48v12.42h-2.48Z"/><path class="cls-1" d="M217.65,31.94v-12.42h5.72v2.23h-3.24v2.81h2.79v2.23h-2.79v2.91h3.24v2.23h-5.72Z"/><path class="cls-1" d="M93.4,51.07c-1.34,0-2.16-.56-2.72-1.26-.87-1.06-.92-2.7-.92-5.09s.05-4.03.92-5.09c.56-.7,1.38-1.26,2.72-1.26,1.05,0,1.85.35,2.44.92.66.66,1.01,1.64,1.06,2.77h-2.48c-.02-.52-.09-1.47-1.03-1.47-.45,0-.7.21-.84.49-.3.58-.33,2.13-.33,3.63s.04,3.05.33,3.63c.14.28.38.49.84.49.82,0,1.03-.77,1.03-1.45v-1.29h-1.03v-2.01h3.51v3.16c0,2.48-1.38,3.82-3.51,3.82Z"/><path class="cls-1" d="M99.16,50.93v-12.42h5.72v2.23h-3.24v2.81h2.79v2.23h-2.79v2.91h3.24v2.23h-5.72Z"/><path class="cls-1" d="M113.5,50.93v-6.47l-1.36,4.26h-1.27l-1.33-4.24v6.45h-2.48v-12.42h2.18l2.27,6.09,2.27-6.09h2.2v12.42h-2.48Z"/><path class="cls-1" d="M118.51,50.93v-12.42h5.72v2.23h-3.24v2.81h2.79v2.23h-2.79v2.91h3.24v2.23h-5.72Z"/><path class="cls-1" d="M126.44,50.93v-12.42h2.48v12.42h-2.48Z"/><path class="cls-1" d="M136.53,50.93l-2.63-6.07v6.07h-2.48v-12.42h2.16l2.58,6.07v-6.07h2.48v12.42h-2.11Z"/><path class="cls-1" d="M146.98,50.14c-.56.54-1.5.92-2.7.92s-2.13-.35-2.69-.91c-.61-.61-.82-1.48-.82-2.76h2.48c0,.51.04.87.26,1.13.14.16.38.3.77.3s.63-.1.78-.31c.18-.21.25-.54.25-1.05,0-1.19-.19-1.4-1.08-1.76l-1.57-.65c-1.26-.52-1.78-1.19-1.78-3.12,0-1.15.37-2.11,1.12-2.76.59-.51,1.34-.79,2.29-.79,1.1,0,1.9.28,2.44.79.68.63.96,1.62.96,2.88h-2.48c0-.44,0-.84-.21-1.12-.14-.19-.35-.31-.72-.31s-.58.14-.72.33c-.16.21-.21.47-.21.89,0,.78.14,1.01.85,1.31l1.55.63c1.57.65,2.02,1.34,2.02,3.59,0,1.26-.16,2.13-.8,2.76Z"/><path class="cls-1" d="M155.73,50.18c-.63.59-1.36.89-2.39.89-1.34,0-2.16-.56-2.72-1.26-.87-1.06-.92-2.7-.92-5.09s.05-4.03.92-5.09c.56-.7,1.38-1.26,2.72-1.26,1.03,0,1.76.3,2.39.89.65.61,1.06,1.59,1.12,2.77h-2.48c-.02-.35-.05-.7-.19-.96-.14-.3-.38-.47-.84-.47s-.7.21-.84.49c-.3.58-.33,2.13-.33,3.63s.04,3.05.33,3.63c.14.28.38.49.84.49s.7-.19.84-.49c.14-.26.17-.61.19-.96h2.48c-.05,1.19-.47,2.18-1.12,2.79Z"/><path class="cls-1" d="M163.47,50.93v-5.2h-2.06v5.2h-2.48v-12.42h2.48v4.99h2.06v-4.99h2.48v12.42h-2.48Z"/><path class="cls-1" d="M174.07,50.93l-.4-1.94h-2.86l-.4,1.94h-2.58l3.19-12.42h2.44l3.19,12.42h-2.58ZM172.24,42.15l-.96,4.6h1.92l-.96-4.6Z"/><path class="cls-1" d="M181,40.74v2.81h2.79v2.23h-2.79v5.15h-2.48v-12.42h5.72v2.23h-3.24Z"/><path class="cls-1" d="M190.54,40.74v10.19h-2.48v-10.19h-2.09v-2.23h6.66v2.23h-2.09Z"/><path class="cls-1" d="M89.9,74.56v-8.93h1.08v7.96h2.37v.97h-3.45Z"/><path class="cls-1" d="M95.05,74.56v-8.93h1.08v8.93h-1.08Z"/><path class="cls-1" d="M102.73,74.56v-6.36l-1.42,4.18h-.66l-1.39-4.08v6.26h-1.08v-8.93h1.02l1.81,4.97,1.79-4.97h1.02v8.93h-1.08Z"/><path class="cls-1" d="M109.43,74.02c-.36.38-.85.54-1.64.54h-1.92v-8.93h1.92c.79,0,1.27.16,1.63.54.39.4.53.84.53,1.81,0,.64-.09,1.17-.53,1.59-.15.15-.33.26-.5.34.2.06.4.19.55.33.46.45.54,1.05.54,1.82,0,1.08-.18,1.56-.58,1.97ZM107.74,66.6h-.79v2.86h.79c.77,0,1.13-.41,1.13-1.43,0-1.08-.35-1.43-1.13-1.43ZM107.73,70.38h-.78v3.21h.78c.82,0,1.2-.38,1.2-1.61,0-1.15-.4-1.61-1.2-1.61Z"/><path class="cls-1" d="M115.38,74.56l-.43-2.11h-2.07l-.43,2.11h-1.13l2.08-8.93h1.04l2.07,8.93h-1.14ZM113.93,67.37l-.84,4.11h1.67l-.83-4.11Z"/><path class="cls-1" d="M121.35,74.17c-.35.31-.79.49-1.38.49-.7,0-1.19-.26-1.53-.65-.59-.68-.65-1.44-.65-3.91s.06-3.24.65-3.91c.34-.39.83-.65,1.53-.65.63,0,1.07.19,1.42.53.41.4.63,1.04.64,1.77h-1.07c-.01-.38-.08-.75-.29-1.02-.14-.18-.36-.31-.7-.31s-.59.14-.74.34c-.31.43-.36,1.14-.36,3.26s.05,2.83.36,3.26c.15.2.39.34.74.34s.56-.14.7-.31c.2-.26.28-.65.29-1.03h1.07c-.01.75-.24,1.42-.68,1.82Z"/><path class="cls-1" d="M126.88,74.56v-4.06h-1.98v4.06h-1.08v-8.93h1.08v3.9h1.98v-3.9h1.08v8.93h-1.08Z"/><path class="cls-1" d="M129.84,70.59v-.97h2.46v.97h-2.46Z"/><path class="cls-1" d="M137.78,74.01c-.35.39-.83.65-1.53.65s-1.18-.26-1.53-.65c-.58-.64-.65-1.44-.65-3.91s.08-3.27.65-3.91c.35-.39.83-.65,1.53-.65s1.18.26,1.53.65c.58.64.65,1.44.65,3.91s-.08,3.27-.65,3.91ZM136.98,66.84c-.15-.2-.38-.34-.73-.34s-.59.14-.74.34c-.31.43-.36,1.14-.36,3.26s.05,2.83.36,3.26c.15.2.39.34.74.34s.58-.14.73-.34c.31-.43.38-1.14.38-3.26s-.06-2.84-.38-3.26Z"/><path class="cls-1" d="M143.89,74.02c-.36.38-.85.54-1.64.54h-1.92v-8.93h1.92c.79,0,1.27.16,1.63.54.39.4.53.84.53,1.81,0,.64-.09,1.17-.53,1.59-.15.15-.33.26-.5.34.2.06.4.19.55.33.46.45.54,1.05.54,1.82,0,1.08-.18,1.56-.58,1.97ZM142.2,66.6h-.79v2.86h.79c.77,0,1.13-.41,1.13-1.43,0-1.08-.35-1.43-1.13-1.43ZM142.18,70.38h-.78v3.21h.78c.82,0,1.2-.38,1.2-1.61,0-1.15-.4-1.61-1.2-1.61Z"/><path class="cls-1" d="M146.34,74.56v-8.93h3.45v.97h-2.37v3h2.04v.97h-2.04v3.04h2.37v.97h-3.45Z"/><path class="cls-1" d="M154.88,74.56l-1.23-3.84h-.97v3.84h-1.08v-8.93h2.02c1.35,0,2.11.59,2.11,2.55,0,1.24-.3,1.97-1.08,2.33l1.37,4.05h-1.14ZM153.64,66.6h-.95v3.17h.95c.83,0,1.02-.64,1.02-1.59s-.19-1.58-1.02-1.58Z"/><path class="cls-1" d="M158.9,66.6v3h2.04v.97h-2.04v4h-1.08v-8.93h3.45v.97h-2.37Z"/><path class="cls-1" d="M166.33,74.56l-1.23-3.84h-.97v3.84h-1.08v-8.93h2.02c1.35,0,2.11.59,2.11,2.55,0,1.24-.3,1.97-1.08,2.33l1.37,4.05h-1.14ZM165.09,66.6h-.95v3.17h.95c.83,0,1.02-.64,1.02-1.59s-.19-1.58-1.02-1.58Z"/><path class="cls-1" d="M172.74,74.01c-.35.39-.83.65-1.53.65s-1.18-.26-1.53-.65c-.58-.64-.65-1.44-.65-3.91s.08-3.27.65-3.91c.35-.39.83-.65,1.53-.65s1.18.26,1.53.65c.58.64.65,1.44.65,3.91s-.07,3.27-.65,3.91ZM171.93,66.84c-.15-.2-.38-.34-.73-.34s-.59.14-.74.34c-.31.43-.36,1.14-.36,3.26s.05,2.83.36,3.26c.15.2.39.34.74.34s.58-.14.73-.34c.31-.43.38-1.14.38-3.26s-.06-2.84-.38-3.26Z"/><path class="cls-1" d="M178.34,74.56v-4.06h-1.98v4.06h-1.08v-8.93h1.08v3.9h1.98v-3.9h1.08v8.93h-1.08Z"/><path class="cls-1" d="M184.86,74.56l-2.31-6.11v6.11h-1.08v-8.93h1l2.28,6.11v-6.11h1.08v8.93h-.98Z"/><path class="cls-1" d="M191.49,74.56l-.43-2.11h-2.07l-.43,2.11h-1.13l2.08-8.93h1.04l2.07,8.93h-1.14ZM190.03,67.37l-.84,4.11h1.67l-.83-4.11Z"/></svg>